<svg xmlns="http://www.w3.org/2000/svg" viewBox="0 0 512 512">
  <rect width="512" height="512" rx="96" fill="#102018"/>
  <path d="M88 330c52-98 104-147 156-147 30 0 56 15 79 45 17-33 40-50 69-50 41 0 74 39 99 116v130H88z" fill="#4f7a43"/>
  <path d="M87 390c56-36 103-52 141-48 41 4 72 28 112 28 28 0 54-12 85-34 20-14 43-22 69-24v112H88z" fill="#2d6f73"/>
  <path d="M257 101c-45 45-68 82-68 112 0 35 29 64 68 64s68-29 68-64c0-30-23-67-68-112z" fill="#dfead7"/>
  <circle cx="257" cy="213" r="25" fill="#102018"/>
</svg>
